<svg width="512" height="134" viewBox="0 0 512 134" fill="none" xmlns="http://www.w3.org/2000/svg">
<g clip-path="url(#clip0_14_112)">
<g clip-path="url(#clip1_14_112)">
<path d="M56.4512 11.2764C63.1672 9.70018 70.1385 9.54516 76.918 10.8213L77.7031 10.9688C84.2871 12.2081 90.5509 14.7716 96.1152 18.5029L99.4551 20.7422C105.576 24.8468 110.704 30.2665 114.463 36.6055L117.029 40.9336C119.922 45.8117 121.955 51.1511 123.039 56.7178L123.271 57.9102C124.489 64.1613 124.489 70.5887 123.271 76.8398L122.509 80.7549C121.769 84.5527 120.586 88.251 118.985 91.7734L115.915 98.5293C115.384 99.698 115.322 101.027 115.743 102.239L120.33 115.445C121.43 118.613 118.378 121.648 115.217 120.528L101.871 115.802C100.574 115.342 99.1444 115.437 97.9199 116.065L94.5059 117.816C91.4722 119.372 88.2852 120.611 84.9971 121.512L81.5342 122.46C75.1372 124.213 68.4528 124.662 61.8789 123.781L57.7812 123.231C51.1896 122.348 44.8436 120.145 39.1221 116.755L36.3779 115.129C30.6627 111.742 25.6874 107.239 21.749 101.889L20.4531 100.128C16.5809 94.8676 13.7878 88.8926 12.2354 82.5479L11.2451 78.5C9.68713 72.1326 9.40909 65.5186 10.4277 59.043L10.8145 56.582C11.8301 50.1255 14.1151 43.9343 17.5361 38.3652L18.2314 37.2324C21.3859 32.0974 25.4517 27.5817 30.2285 23.9072L33.876 21.1016C39.4575 16.8082 45.8906 13.7545 52.7461 12.1455L56.4512 11.2764Z" fill="#4F6F52" fill-opacity="0.78" stroke="#4F6F52" stroke-linecap="round"/>
<path d="M82.0461 108.25L88.4704 95.7072L75.9276 93.5658M88.4704 95.7072L84.3285 98.0083C81.5985 99.525 78.6573 100.626 75.6023 101.274C71.9729 102.043 68.2359 102.163 64.5646 101.628L61.7869 101.223C57.585 100.61 53.5306 99.2341 49.8238 97.1627L49.5821 97.0276C46.5658 95.342 43.8322 93.194 41.4809 90.6619C38.5717 87.5289 36.2976 83.8614 34.7845 79.8627L34.611 79.4041C33.4051 76.217 32.6634 72.8732 32.4085 69.4752L32.3988 69.3454C32.0527 64.7318 32.5876 60.0946 33.9747 55.6809L34.0102 55.5679C34.8277 52.967 35.9294 50.4641 37.2954 48.1046L38.6053 45.8421M95.5066 87.7533L98.3151 81.715C100.495 77.0274 101.625 71.9201 101.625 66.7503V65.9407C101.625 62.1589 100.935 58.4089 99.5886 54.8749C97.7138 49.9535 94.6194 45.5892 90.5957 42.1914L88.0226 40.0186C84.6842 37.1995 80.8128 35.0809 76.6387 33.7889C72.3364 32.4573 67.8047 32.0323 63.3299 32.5408L62.3191 32.6556C58.5644 33.0823 54.896 34.0752 51.4387 35.6005L46.2533 37.8882M56.6546 39.4178L46.2533 37.8882L51.148 26.875" stroke="#F4B942" stroke-width="1.5" stroke-linecap="square" stroke-linejoin="round"/>
<path d="M50.2029 55.1701L66.7193 50.375L84.0348 56.502L89.3627 63.4283L84.0348 65.8258V75.1496L66.7193 82.875L49.4037 75.1496V65.293L44.875 62.3627L50.2029 55.1701Z" fill="#F4B942"/>
<path d="M66.7193 57.5676V50.375M84.0348 65.8258L89.3627 63.4283L84.0348 56.502L66.7193 50.375L50.2029 55.1701L44.875 62.3627L49.4037 65.293M50.2029 55.1701L66.1865 63.4283M66.1865 63.4283L84.0348 56.502M66.1865 63.4283L66.7193 82.875M66.1865 63.4283L60.0594 70.8873L49.4037 65.293M66.1865 63.4283L71.5143 70.8873L84.0348 65.8258M49.4037 65.293V75.1496L66.7193 82.875L84.0348 75.1496V65.8258" stroke="#4F6F52" stroke-width="1.06557" stroke-linecap="round"/>
</g>
<path d="M350.049 53.4157V76.5977H347V59.3117L339.295 76.5977H337.151L329.413 59.2782V76.5977H326.364V53.4157H329.647L338.223 72.5777L346.799 53.4157H350.049Z" fill="#50555C"/>
<path d="M312.238 55.7272V63.5327H320.747V66.0452H312.238V74.0852H321.752V76.5977H309.189V53.2147H321.752V55.7272H312.238Z" fill="#50555C"/>
<path d="M289.565 53.2482V68.0217C289.565 70.0987 290.067 71.6397 291.072 72.6447C292.099 73.6497 293.518 74.1522 295.327 74.1522C297.113 74.1522 298.509 73.6497 299.514 72.6447C300.541 71.6397 301.055 70.0987 301.055 68.0217V53.2482H304.104V67.9882C304.104 69.9312 303.713 71.5727 302.931 72.9127C302.149 74.2304 301.089 75.2131 299.749 75.8607C298.431 76.5084 296.946 76.8322 295.293 76.8322C293.64 76.8322 292.144 76.5084 290.804 75.8607C289.486 75.2131 288.437 74.2304 287.655 72.9127C286.896 71.5727 286.516 69.9312 286.516 67.9882V53.2482H289.565Z" fill="#50555C"/>
<path d="M278.909 81.0197L274.252 76.3632C273.113 76.6759 271.952 76.8322 270.768 76.8322C268.602 76.8322 266.625 76.3297 264.839 75.3247C263.052 74.2974 261.634 72.8792 260.584 71.0702C259.557 69.2389 259.043 67.1842 259.043 64.9062C259.043 62.6282 259.557 60.5847 260.584 58.7757C261.634 56.9444 263.052 55.5262 264.839 54.5212C266.625 53.4939 268.602 52.9802 270.768 52.9802C272.957 52.9802 274.945 53.4939 276.731 54.5212C278.518 55.5262 279.925 56.9332 280.952 58.7422C281.98 60.5512 282.493 62.6059 282.493 64.9062C282.493 67.1396 282.002 69.1496 281.019 70.9362C280.037 72.7229 278.685 74.1299 276.966 75.1572L282.862 81.0197H278.909ZM262.159 64.9062C262.159 66.7599 262.527 68.3902 263.264 69.7972C264.024 71.2042 265.051 72.2874 266.346 73.0467C267.664 73.8061 269.138 74.1857 270.768 74.1857C272.399 74.1857 273.861 73.8061 275.157 73.0467C276.474 72.2874 277.502 71.2042 278.239 69.7972C278.998 68.3902 279.378 66.7599 279.378 64.9062C279.378 63.0302 278.998 61.3999 278.239 60.0152C277.502 58.6082 276.486 57.5251 275.19 56.7657C273.895 56.0064 272.421 55.6267 270.768 55.6267C269.116 55.6267 267.642 56.0064 266.346 56.7657C265.051 57.5251 264.024 58.6082 263.264 60.0152C262.527 61.3999 262.159 63.0302 262.159 64.9062Z" fill="#50555C"/>
<path d="M246.399 53.3152V76.5977H242.58V53.3152H246.399Z" fill="#50555C"/>
<path d="M228.831 56.3972V63.2312H236.871V66.3467H228.831V73.4822H237.876V76.5977H225.012V53.2817H237.876V56.3972H228.831Z" fill="#50555C"/>
<path d="M219.985 53.3152V76.5977H216.166V66.4137H205.211V76.5977H201.392V53.3152H205.211V63.2982H216.166V53.3152H219.985Z" fill="#50555C"/>
<path d="M174.209 64.9062C174.209 62.6282 174.734 60.5847 175.783 58.7757C176.855 56.9667 178.296 55.5597 180.105 54.5547C181.936 53.5274 183.935 53.0137 186.101 53.0137C188.58 53.0137 190.78 53.6279 192.701 54.8562C194.644 56.0622 196.051 57.7819 196.922 60.0152H192.332C191.729 58.7869 190.892 57.8712 189.82 57.2682C188.748 56.6652 187.508 56.3637 186.101 56.3637C184.56 56.3637 183.187 56.7099 181.981 57.4022C180.775 58.0946 179.826 59.0884 179.133 60.3837C178.463 61.6791 178.128 63.1866 178.128 64.9062C178.128 66.6259 178.463 68.1334 179.133 69.4287C179.826 70.7241 180.775 71.7291 181.981 72.4437C183.187 73.1361 184.56 73.4822 186.101 73.4822C187.508 73.4822 188.748 73.1807 189.82 72.5777C190.892 71.9747 191.729 71.0591 192.332 69.8307H196.922C196.051 72.0641 194.644 73.7837 192.701 74.9897C190.78 76.1957 188.58 76.7987 186.101 76.7987C183.913 76.7987 181.914 76.2962 180.105 75.2912C178.296 74.2639 176.855 72.8457 175.783 71.0367C174.734 69.2277 174.209 67.1842 174.209 64.9062Z" fill="#50555C"/>
<path d="M166.16 71.8407H156.411L154.736 76.5977H150.75L159.092 53.2817H163.514L171.855 76.5977H167.835L166.16 71.8407ZM165.088 68.7252L161.302 57.9047L157.484 68.7252H165.088Z" fill="#50555C"/>
<path d="M502.531 73.6571H493.486L492.111 77.8178H484.658L493.956 52.3109H502.133L511.395 77.8178H503.905L502.531 73.6571ZM500.758 68.2301L498.008 59.9811L495.295 68.2301H500.758Z" fill="#50555C"/>
<path d="M472.496 77.8178L467.431 68.411H466.671V77.8178H459.58V52.3109H470.76C472.81 52.3109 474.547 52.6727 475.97 53.3963C477.393 54.0958 478.466 55.0726 479.19 56.3269C479.913 57.557 480.275 58.9439 480.275 60.4876C480.275 62.2242 479.793 63.7558 478.828 65.0824C477.887 66.3849 476.5 67.3135 474.667 67.8683L480.42 77.8178H472.496ZM466.671 63.5629H470.181C471.146 63.5629 471.869 63.3337 472.352 62.8755C472.834 62.4172 473.075 61.7539 473.075 60.8856C473.075 60.0655 472.822 59.4263 472.315 58.968C471.833 58.4856 471.121 58.2444 470.181 58.2444H466.671V63.5629Z" fill="#50555C"/>
<path d="M452.647 52.3109V77.8178H445.556V52.3109H452.647Z" fill="#50555C"/>
<path d="M429.932 57.9912V62.1519H438.072V67.5427H429.932V72.1375H439.158V77.8178H422.841V52.3109H439.158V57.9912H429.932Z" fill="#50555C"/>
<path d="M401.136 52.3109V67.1085C401.136 68.4834 401.449 69.5446 402.076 70.2924C402.728 71.0401 403.704 71.4139 405.007 71.4139C406.309 71.4139 407.286 71.0401 407.938 70.2924C408.613 69.5205 408.951 68.4592 408.951 67.1085V52.3109H416.042V67.1085C416.042 69.4482 415.547 71.4501 414.558 73.1144C413.57 74.7546 412.219 75.9967 410.506 76.8409C408.818 77.661 406.937 78.0711 404.862 78.0711C402.788 78.0711 400.931 77.661 399.29 76.8409C397.674 75.9967 396.396 74.7546 395.455 73.1144C394.539 71.4742 394.081 69.4723 394.081 67.1085V52.3109H401.136Z" fill="#50555C"/>
<path d="M380.257 82.0871L377.435 77.854C376.639 77.9987 375.831 78.0711 375.01 78.0711C372.623 78.0711 370.428 77.5163 368.426 76.4068C366.424 75.2732 364.832 73.7174 363.65 71.7396C362.492 69.7376 361.913 67.4824 361.913 64.9739C361.913 62.4654 362.492 60.2223 363.65 58.2444C364.832 56.2425 366.424 54.6867 368.426 53.5772C370.428 52.4677 372.623 51.9129 375.01 51.9129C377.422 51.9129 379.617 52.4677 381.595 53.5772C383.597 54.6867 385.177 56.2425 386.335 58.2444C387.493 60.2223 388.071 62.4654 388.071 64.9739C388.071 67.0724 387.649 69.014 386.805 70.7989C385.961 72.5597 384.803 74.031 383.332 75.2128L388.723 82.0871H380.257ZM369.149 64.9739C369.149 66.9759 369.668 68.5678 370.705 69.7497C371.742 70.9074 373.177 71.4863 375.01 71.4863C376.819 71.4863 378.243 70.8954 379.28 69.7135C380.341 68.5316 380.872 66.9518 380.872 64.9739C380.872 62.9478 380.341 61.3559 379.28 60.1982C378.243 59.0163 376.819 58.4253 375.01 58.4253C373.177 58.4253 371.742 59.0163 370.705 60.1982C369.668 61.3559 369.149 62.9478 369.149 64.9739Z" fill="#50555C"/>
</g>
<defs>
<clipPath id="clip0_14_112">
<rect width="511.395" height="134" fill="white"/>
</clipPath>
<clipPath id="clip1_14_112">
<rect width="117.25" height="117.25" fill="white" transform="translate(8.375 8.375)"/>
</clipPath>
</defs>
</svg>
