<svg width="32" height="32" viewBox="0 0 32 32" fill="none" xmlns="http://www.w3.org/2000/svg">
<g clip-path="url(#clip0_21_190)">
<path d="M13.1211 0.791992C14.954 0.36183 16.8568 0.31969 18.707 0.667969L18.9209 0.708008C20.7178 1.04625 22.4277 1.74533 23.9463 2.76367L24.8574 3.375C26.528 4.49524 27.9272 5.97504 28.9531 7.70508L29.6543 8.88574C30.4437 10.2169 30.998 11.6742 31.2939 13.1934L31.3574 13.5195C31.6897 15.2255 31.6898 16.9796 31.3574 18.6855L31.1494 19.7539C30.9475 20.7903 30.6244 21.7995 30.1875 22.7607L29.3496 24.6055C29.2049 24.9242 29.188 25.2865 29.3027 25.6172L30.5547 29.2217C30.8551 30.0864 30.022 30.915 29.1592 30.6094L25.5166 29.3193C25.1627 29.1941 24.7726 29.2193 24.4385 29.3906L23.5068 29.8691C22.679 30.2937 21.8094 30.6311 20.9121 30.877L19.9668 31.1367C18.221 31.615 16.3967 31.7375 14.6025 31.4971L13.4844 31.3467C11.6853 31.1056 9.95315 30.5044 8.3916 29.5791L7.64258 29.1357C6.08272 28.2114 4.72527 26.9817 3.65039 25.5215L3.2959 25.041C2.23921 23.6054 1.47737 21.9746 1.05371 20.2432L0.783203 19.1387C0.357994 17.4009 0.282538 15.5955 0.560547 13.8281L0.666016 13.1572C0.943206 11.3951 1.56632 9.70451 2.5 8.18457L2.69043 7.87598C3.55126 6.47466 4.66035 5.24204 5.96387 4.23926L6.95996 3.47363C8.48315 2.30196 10.2385 1.46844 12.1094 1.0293L13.1211 0.791992Z" fill="#4F6F52" fill-opacity="0.78" stroke="#4F6F52" stroke-width="0.272921" stroke-linecap="round"/>
<path d="M20.1063 27.258L21.8597 23.8348L18.4365 23.2504M21.8597 23.8348L20.7292 24.4628C19.9842 24.8768 19.1815 25.1771 18.3477 25.354C17.3571 25.5641 16.3372 25.5968 15.3353 25.4507L14.5772 25.3402C13.4304 25.1729 12.3239 24.7974 11.3122 24.232L11.2462 24.1952C10.423 23.7351 9.67694 23.1489 9.03524 22.4578C8.24124 21.6028 7.62059 20.6018 7.20765 19.5105L7.16029 19.3853C6.83117 18.5155 6.62873 17.6029 6.55918 16.6755L6.55652 16.6401C6.46209 15.381 6.60805 14.1154 6.98663 12.9108L6.99632 12.88C7.21942 12.1701 7.5201 11.487 7.89292 10.843L8.25041 10.2256M23.78 21.664L24.5465 20.016C25.1415 18.7367 25.4498 17.3428 25.4498 15.9319V15.7109C25.4498 14.6788 25.2615 13.6553 24.894 12.6908C24.3824 11.3477 23.5378 10.1565 22.4397 9.22922L21.7374 8.6362C20.8263 7.86681 19.7697 7.28861 18.6305 6.936C17.4563 6.57256 16.2196 6.45657 14.9983 6.59535L14.7224 6.6267C13.6977 6.74315 12.6965 7.01412 11.7529 7.43041L10.3377 8.05477M13.1765 8.47223L10.3377 8.05477L11.6736 5.04904" stroke="#F4B942" stroke-width="0.409382" stroke-linecap="square" stroke-linejoin="round"/>
<path d="M11.4158 12.7714L15.9234 11.4627L20.6492 13.1349L22.1033 15.0252L20.6492 15.6795V18.2242L15.9234 20.3326L11.1976 18.2242V15.5341L9.96167 14.7344L11.4158 12.7714Z" fill="#F4B942"/>
<path d="M15.9234 13.4257V11.4627M20.6492 15.6795L22.1033 15.0252L20.6492 13.1349L15.9234 11.4627L11.4158 12.7714L9.96167 14.7344L11.1976 15.5341M11.4158 12.7714L15.778 15.0252M15.778 15.0252L20.6492 13.1349M15.778 15.0252L15.9234 20.3326M15.778 15.0252L14.1058 17.0609L11.1976 15.5341M15.778 15.0252L17.2321 17.0609L20.6492 15.6795M11.1976 15.5341V18.2242L15.9234 20.3326L20.6492 18.2242V15.6795" stroke="#4F6F52" stroke-width="0.290818" stroke-linecap="round"/>
</g>
<defs>
<clipPath id="clip0_21_190">
<rect width="32" height="32" fill="white"/>
</clipPath>
</defs>
</svg>
